<svg
  width="19"
  height="18"
  viewBox="0 0 19 18"
  fill="none"
  xmlns="http://www.w3.org/2000/svg"
>
<path
    d="M13.6632 13.3678C12.5094 13.3678 11.558 14.2989 11.558 15.4729C11.558 16.6267 12.4892 17.5781 13.6632 17.5781C14.817 17.5781 15.7683 16.647 15.7683 15.4729C15.7481 14.3192 14.817 13.3678 13.6632 13.3678Z"
    fill="#9BFF5D"
  />
<path
    d="M17.3675 3.32788C17.327 3.32788 17.2662 3.30764 17.2055 3.30764H4.45319L4.25078 1.95144C4.12933 1.0608 3.36014 0.392822 2.44926 0.392822H0.809672C0.364352 0.392822 0 0.757175 0 1.20249C0 1.64781 0.364352 2.01217 0.809672 2.01217H2.44926C2.55047 2.01217 2.63143 2.09313 2.65167 2.19434L3.90667 10.7364C4.0686 11.8092 4.99972 12.6189 6.09278 12.6189H14.5134C15.5659 12.6189 16.4768 11.8699 16.6995 10.8376L18.0152 4.259C18.0962 3.83393 17.8128 3.40885 17.3675 3.32788Z"
    fill="#9BFF5D"
  />
<path
    d="M8.50152 15.3717C8.46104 14.2584 7.52992 13.3678 6.41662 13.3678C5.2426 13.4285 4.35196 14.4001 4.39244 15.5539C4.43292 16.6672 5.3438 17.5578 6.4571 17.5578H6.49759C7.65137 17.4971 8.56225 16.5255 8.50152 15.3717Z"
    fill="#9BFF5D"
  />
</svg>
