<svg width="18" height="16" viewBox="0 0 18 16" fill="none" xmlns="http://www.w3.org/2000/svg">
<path d="M17.9922 5.15851C17.9833 5.10113 17.9651 5.04496 17.943 4.99089C17.938 4.97918 17.938 4.96725 17.9327 4.95538C17.9321 4.95472 17.9311 4.9534 17.9308 4.95274C17.9308 4.95143 17.9301 4.95077 17.9294 4.94994L15.9388 0.723124C15.9342 0.713397 15.9256 0.704658 15.9204 0.694766C15.9134 0.682895 15.9111 0.668386 15.9035 0.656625C15.8883 0.630905 15.8675 0.6109 15.8497 0.587983C15.8315 0.564406 15.815 0.53896 15.7949 0.518076C15.7652 0.48708 15.7312 0.460645 15.6966 0.43487C15.6748 0.417723 15.6543 0.398762 15.6306 0.384858C15.5903 0.360621 15.5467 0.34331 15.5025 0.326767C15.4804 0.318359 15.459 0.305499 15.4358 0.299068C15.3672 0.279723 15.2959 0.268677 15.222 0.268677H8.95811H3.49034C3.42071 0.268677 3.35322 0.278404 3.28755 0.295551C3.26463 0.301652 3.24369 0.313577 3.22105 0.321327C3.18082 0.336495 3.13954 0.34974 3.10179 0.371338C3.07766 0.385243 3.05788 0.403818 3.0354 0.419042C3.00303 0.441959 2.96956 0.463888 2.94082 0.491641C2.92054 0.511591 2.90438 0.535168 2.88635 0.557646C2.86508 0.582597 2.84019 0.605184 2.82282 0.633543L0.119439 4.86047C0.109381 4.87696 0.1046 4.89564 0.0954771 4.91312C0.087728 4.92697 0.0748678 4.93884 0.068108 4.95401C0.0610184 4.96989 0.0606887 4.98654 0.0539289 5.00171C0.03942 5.04046 0.0278788 5.07909 0.0187558 5.11921C0.0119959 5.15103 0.00622534 5.18219 0.00292786 5.21357C-0.000864238 5.25314 -0.00053449 5.2926 0.001444 5.33256C0.00391711 5.36509 0.00622534 5.39708 0.0113364 5.42874C0.018426 5.46765 0.0306816 5.50414 0.0430472 5.54162C0.0542586 5.57349 0.0643159 5.60532 0.0793744 5.63538C0.0843206 5.64576 0.086464 5.65764 0.0914102 5.66835C0.105589 5.69473 0.126528 5.7154 0.143895 5.73914C0.157744 5.75975 0.166153 5.7814 0.181981 5.79987L8.35291 15.4509C8.49382 15.6172 8.70503 15.7353 8.91557 15.7293C8.91821 15.7293 8.9209 15.7307 8.92266 15.7307C8.93442 15.7313 8.94563 15.7313 8.95751 15.7313C8.95751 15.7313 8.95849 15.7313 8.95915 15.7313C9.02978 15.7313 9.09908 15.7181 9.16574 15.7003C9.18552 15.6941 9.20339 15.6878 9.22317 15.6802C9.27236 15.6631 9.32023 15.64 9.36573 15.6129C9.3809 15.604 9.39706 15.5951 9.41195 15.5851C9.46576 15.5478 9.51621 15.505 9.55979 15.4532L17.8146 5.80234C17.8251 5.78981 17.8311 5.77464 17.8404 5.7614C17.8536 5.74474 17.8701 5.73089 17.8813 5.71204C17.8932 5.69341 17.8991 5.67247 17.909 5.65252C17.9229 5.62697 17.936 5.60119 17.9463 5.57349C17.9618 5.53327 17.9724 5.49243 17.9817 5.45154C17.9876 5.42379 17.9942 5.39741 17.9968 5.36971C18.0021 5.32415 18.0001 5.27974 17.9968 5.23457C17.9948 5.20786 17.9961 5.18291 17.9922 5.15851Z" fill="#9BFF5D"/>
</svg>
