<svg width="14" height="14" viewBox="0 0 14 14" fill="none" xmlns="http://www.w3.org/2000/svg">
<path d="M13.6955 3.88087L10.6293 0.410647C10.3985 0.149525 10.0669 0 9.71849 0H4.37838C4.04269 0 3.72195 0.13886 3.4922 0.383657L0.328243 3.75495C0.116425 3.98063 -0.00127022 4.27864 -0.000914724 4.58816L0.00428092 8.7237C0.00463641 9.02833 0.11946 9.32175 0.325891 9.54579L3.48821 12.9773C3.71829 13.227 4.04236 13.369 4.38191 13.369H9.71362C10.0673 13.369 10.4034 13.2149 10.6343 12.947L13.7054 9.38289C13.8954 9.1623 14 8.88077 14 8.58957V4.68557C14 4.38917 13.8917 4.10297 13.6955 3.88087ZM10.0132 6.8358C9.94242 8.37412 8.6967 9.61984 7.15841 9.69056C5.39402 9.77166 3.94102 8.31863 4.02215 6.55428C4.0929 5.01598 5.33865 3.77023 6.87694 3.69952C8.64132 3.61841 10.0943 5.07141 10.0132 6.8358Z" fill="white"/>
</svg>
