<svg width="18" height="18" viewBox="0 0 18 18" fill="none" xmlns="http://www.w3.org/2000/svg">
<path d="M0.816467 16.1237C0.816467 16.7053 1.2891 17.1779 1.87067 17.1779H4.68188C5.26344 17.1779 5.73608 16.7053 5.73608 16.1237V1.57575C5.73608 0.994179 5.26344 0.521545 4.68188 0.521545H1.87067C1.2891 0.521545 0.816467 0.994179 0.816467 1.57575V16.1237Z" fill="#9BFF5E"/>
<path d="M8.00263 0.521606C7.42106 0.521606 6.94843 0.99424 6.94843 1.57581V16.1238C6.94843 16.7054 7.42106 17.178 8.00263 17.178H10.8138C11.3954 17.178 11.868 16.7054 11.868 16.1238V1.57581C11.868 0.99424 11.3954 0.521606 10.8138 0.521606H8.00263Z" fill="#9BFF5E"/>
<path d="M14.1346 17.178H16.9458C17.5274 17.178 18 16.7054 18 16.1238V1.57581C18 0.99424 17.5274 0.521606 16.9458 0.521606H14.1346C13.553 0.521606 13.0804 0.99424 13.0804 1.57581V16.1238C13.0804 16.7054 13.553 17.178 14.1346 17.178Z" fill="#9BFF5E"/>
</svg>
