<svg width="20" height="21" viewBox="0 0 20 21" fill="none" xmlns="http://www.w3.org/2000/svg">
<path d="M1.67451 13.3546L1.68611 13.3528C1.96583 17.6467 5.59511 20.9969 9.99927 20.9969C14.3723 20.9969 17.9792 17.6925 18.3037 13.4279C18.3124 13.3957 18.3224 13.3642 18.3271 13.3304L19.9893 1.95212C20.041 1.59834 19.8614 1.25128 19.5428 1.08914C19.2244 0.927211 18.8377 0.986004 18.5824 1.23582L13.8649 5.84891L10.6793 1.35015C10.5231 1.12963 10.2696 0.998413 9.99927 0.998413C9.7289 0.998413 9.47563 1.12963 9.31939 1.35015L6.1338 5.8485L1.41575 1.23582C1.16003 0.986004 0.773298 0.927211 0.455533 1.08914C0.136751 1.25128 -0.042882 1.59834 0.00879044 1.95212L1.67045 13.3253L1.67451 13.3546ZM5.72917 11.0263C5.89375 11.2001 6.06626 11.3646 6.24956 11.5138V12.8308C6.24956 13.2908 6.62286 13.6641 7.08283 13.6641C7.54279 13.6641 7.91609 13.2908 7.91609 12.8308V12.4697C8.57441 12.7163 9.27646 12.8475 9.99927 12.8475C10.7227 12.8475 11.4255 12.7163 12.0824 12.4705V12.8308C12.0824 13.2908 12.4557 13.6641 12.9157 13.6641C13.3757 13.6641 13.749 13.2908 13.749 12.8308V11.5133C13.9331 11.3634 14.1052 11.1992 14.2694 11.0267C15.9097 11.5668 16.6654 12.3191 16.6654 12.8308C16.6654 13.8195 14.0686 15.2557 9.99927 15.2557C5.92996 15.2557 3.33312 13.8195 3.33312 12.8308C3.33312 12.3191 4.08888 11.5668 5.72917 11.0263ZM9.99927 19.3303C7.39774 19.3303 5.13758 17.8745 4.04066 15.7452C5.53042 16.4802 7.61786 16.9223 9.99927 16.9223C12.3782 16.9223 14.464 16.481 15.9538 15.7472C14.8548 17.8784 12.5975 19.3303 9.99927 19.3303ZM5.66712 7.72295C5.84126 7.89322 6.08294 7.97785 6.32463 7.9571C6.56753 7.93493 6.78866 7.80798 6.92964 7.60882L9.99927 3.27363L13.0691 7.60882C13.2099 7.80798 13.4312 7.93493 13.6741 7.9571C13.917 7.97907 14.1573 7.89363 14.3314 7.72295L17.9841 4.15145L17.0462 10.5706C16.3546 10.0376 15.4005 9.59272 14.2144 9.26865C14.2132 9.26824 14.2124 9.26824 14.211 9.26824C14.1652 9.25562 14.119 9.24911 14.0722 9.24484C14.0635 9.24403 14.0547 9.24118 14.0464 9.24077C14.0403 9.24037 14.0344 9.24159 14.0281 9.24118C13.9258 9.23691 13.8253 9.25034 13.7315 9.28146C13.7311 9.28146 13.7311 9.28146 13.7307 9.28146C13.6806 9.29814 13.6324 9.31991 13.586 9.34575C13.5852 9.34615 13.584 9.34656 13.5832 9.34697C13.4878 9.40108 13.4035 9.47452 13.3354 9.56281C13.3348 9.56363 13.334 9.56403 13.3336 9.56444C13.0803 9.894 12.7808 10.1786 12.435 10.416C11.7262 10.9161 10.8838 11.1801 9.99886 11.1801C9.11392 11.1801 8.2715 10.9161 7.55398 10.4101C7.21669 10.1786 6.91743 9.894 6.66416 9.56444C6.66375 9.56363 6.66294 9.56322 6.66212 9.5624C6.62957 9.5207 6.59336 9.48225 6.5541 9.44767C6.55207 9.44563 6.55044 9.44319 6.548 9.44156C6.5067 9.40617 6.46255 9.37484 6.41576 9.34819C6.39542 9.33659 6.37325 9.32947 6.3525 9.31991C6.32463 9.30689 6.29798 9.29245 6.26868 9.28268C6.24834 9.27577 6.22677 9.27312 6.20582 9.26783C6.17469 9.2599 6.14418 9.25034 6.11204 9.24606C6.05874 9.23894 6.00503 9.23732 5.95132 9.24077C5.94502 9.24118 5.93912 9.24322 5.93301 9.24362C5.88378 9.24769 5.83496 9.25522 5.78715 9.26824C5.78593 9.26865 5.78512 9.26865 5.7839 9.26865C4.59767 9.59272 3.64356 10.0376 2.95188 10.5706L2.01405 4.15145L5.66712 7.72295Z" fill="white"/>
</svg>
