<svg width="15" height="15" viewBox="0 0 15 15" fill="none" xmlns="http://www.w3.org/2000/svg">
<path d="M6.9591 10.1453C7.50883 10.6931 8.39774 10.6931 8.9478 10.1453L13.6537 5.46215C13.9578 5.15939 14.05 4.69789 13.886 4.30122C13.7219 3.90455 13.3359 3.64088 12.9062 3.64088H10.9415V1.06804C10.9415 0.482889 10.4616 0 9.87649 0H6.02975C5.44427 0 4.9577 0.482554 4.9577 1.06804V3.64055H3.00008C2.571 3.64055 2.18435 3.90455 2.02061 4.30088C1.85686 4.69755 1.94842 5.15672 2.25253 5.45915L6.9591 10.1453Z" fill="white"/>
<path d="M14.9687 12.5474C14.9687 11.9626 14.4945 11.4877 13.9087 11.4877H1.99755C1.4124 11.4877 0.937866 11.9619 0.937866 12.5474V13.42C0.937866 14.0051 1.4124 14.4797 1.99755 14.4797H13.9094C14.4945 14.4797 14.969 14.0051 14.969 13.42L14.9687 12.5474Z" fill="white"/>
</svg>
