<svg width="16" height="17" viewBox="0 0 16 17" fill="none" xmlns="http://www.w3.org/2000/svg">
<path d="M14.6667 9.16666V6.5C14.6667 3.16666 13.3333 1.83333 10 1.83333H6.00001C2.66668 1.83333 1.33334 3.16666 1.33334 6.5V10.5C1.33334 13.8333 2.66668 15.1667 6.00001 15.1667H8.66668" stroke="#8B8B93" stroke-width="1.5" stroke-linecap="round" stroke-linejoin="round"/>
<path d="M4.88666 10.16L6.47333 8.1C6.69999 7.80666 7.12 7.75333 7.41333 7.98L8.63334 8.94C8.92667 9.16667 9.34666 9.11334 9.57332 8.82667L11.1133 6.84" stroke="#8B8B93" stroke-width="1.5" stroke-linecap="round" stroke-linejoin="round"/>
<path d="M12.9867 11.0467L13.1733 11.4267C13.2667 11.6133 13.5 11.7867 13.7067 11.8267L13.96 11.8667C14.72 11.9933 14.9 12.5533 14.3533 13.1067L14.12 13.34C13.9667 13.5 13.88 13.8067 13.9267 14.02L13.96 14.16C14.1667 15.08 13.68 15.4333 12.88 14.9533L12.7067 14.8533C12.5 14.7333 12.1667 14.7333 11.96 14.8533L11.7867 14.9533C10.98 15.44 10.4933 15.08 10.7067 14.16L10.74 14.02C10.7867 13.8067 10.7 13.5 10.5467 13.34L10.3133 13.1067C9.76667 12.5533 9.94667 11.9933 10.7067 11.8667L10.96 11.8267C11.16 11.7933 11.4 11.6133 11.4933 11.4267L11.68 11.0467C12.04 10.32 12.6267 10.32 12.9867 11.0467Z" stroke="#8B8B93" stroke-width="1.5" stroke-linecap="round" stroke-linejoin="round"/>
</svg>
