<svg width="16" height="17" viewBox="0 0 16 17" fill="none" xmlns="http://www.w3.org/2000/svg">
<path d="M7.99999 12.8333C10.3932 12.8333 12.3333 10.8932 12.3333 8.5C12.3333 6.10677 10.3932 4.16667 7.99999 4.16667C5.60676 4.16667 3.66666 6.10677 3.66666 8.5C3.66666 10.8932 5.60676 12.8333 7.99999 12.8333Z" stroke="#8B8B93" stroke-width="1.5" stroke-linecap="round" stroke-linejoin="round"/>
<path d="M12.76 13.26L12.6733 13.1733M12.6733 3.82667L12.76 3.74L12.6733 3.82667ZM3.24001 13.26L3.32668 13.1733L3.24001 13.26ZM8.00001 1.88667V1.83333V1.88667ZM8.00001 15.1667V15.1133V15.1667ZM1.38668 8.5H1.33334H1.38668ZM14.6667 8.5H14.6133H14.6667ZM3.32668 3.82667L3.24001 3.74L3.32668 3.82667Z" stroke="#8B8B93" stroke-width="2" stroke-linecap="round" stroke-linejoin="round"/>
</svg>
