<svg width="16" height="17" viewBox="0 0 16 17" fill="none" xmlns="http://www.w3.org/2000/svg">
<path d="M1.33334 6.16666H8.66668" stroke="#8B8B93" stroke-width="1.5" stroke-miterlimit="10" stroke-linecap="round" stroke-linejoin="round"/>
<path d="M4 11.5H5.33333" stroke="#8B8B93" stroke-width="1.5" stroke-miterlimit="10" stroke-linecap="round" stroke-linejoin="round"/>
<path d="M7 11.5H9.66667" stroke="#8B8B93" stroke-width="1.5" stroke-miterlimit="10" stroke-linecap="round" stroke-linejoin="round"/>
<path d="M14.6667 8.05335V11.24C14.6667 13.58 14.0733 14.1667 11.7067 14.1667H4.29334C1.92668 14.1667 1.33334 13.58 1.33334 11.24V5.76001C1.33334 3.42001 1.92668 2.83334 4.29334 2.83334H8.85334" stroke="#8B8B93" stroke-width="1.5" stroke-linecap="round" stroke-linejoin="round"/>
<path d="M11.3333 2.66667H13.42C13.88 2.66667 14.2533 3.08667 14.2533 3.50001C14.2533 3.96001 13.88 4.33334 13.42 4.33334H11.3333V2.66667Z" stroke="#8B8B93" stroke-width="1.5" stroke-miterlimit="10" stroke-linecap="round" stroke-linejoin="round"/>
<path d="M11.3333 4.33334H13.7133C14.24 4.33334 14.6666 4.70667 14.6666 5.16667C14.6666 5.62667 14.24 6 13.7133 6H11.3333V4.33334Z" stroke="#8B8B93" stroke-width="1.5" stroke-miterlimit="10" stroke-linecap="round" stroke-linejoin="round"/>
<path d="M12.5067 6V6.83333" stroke="#8B8B93" stroke-width="1.5" stroke-miterlimit="10" stroke-linecap="round" stroke-linejoin="round"/>
<path d="M12.5067 1.83334V2.66667" stroke="#8B8B93" stroke-width="1.5" stroke-miterlimit="10" stroke-linecap="round" stroke-linejoin="round"/>
<path d="M12.1267 2.66667H10.6667" stroke="#8B8B93" stroke-width="1.5" stroke-miterlimit="10" stroke-linecap="round" stroke-linejoin="round"/>
<path d="M12.1267 6H10.6667" stroke="#8B8B93" stroke-width="1.5" stroke-miterlimit="10" stroke-linecap="round" stroke-linejoin="round"/>
</svg>
