<svg width="23" height="23" viewBox="0 0 23 23" fill="none" xmlns="http://www.w3.org/2000/svg">
<path d="M21.114 20L18.3272 16.7668C19.807 14.992 20.6971 12.7239 20.6971 10.2467C20.6971 4.59519 16.059 0 10.3539 0C4.64881 0 0 4.60055 0 10.2521C0 15.9035 4.63809 20.4987 10.3432 20.4987C12.7668 20.4987 14.9974 19.6676 16.7668 18.2789L20.614 21.5C21.0537 21.9397 21.6743 22.4397 22.114 22C22.5537 21.5603 21.5537 20.4397 21.114 20ZM2.1984 10.2521C2.1984 5.81236 5.85525 2.20376 10.3432 2.20376C14.8312 2.20376 18.488 5.81236 18.488 10.2521C18.488 14.6917 14.8312 18.3003 10.3432 18.3003C5.85525 18.3003 2.1984 14.6864 2.1984 10.2521Z" fill="#BEB9B9"/>
</svg>
